<svg width="77" height="77" viewBox="0 0 77 77" fill="none" xmlns="http://www.w3.org/2000/svg">
<path d="M38.5 0.4375C17.4807 0.4375 0.4375 17.4807 0.4375 38.5C0.4375 59.5193 17.4807 76.5625 38.5 76.5625C59.5193 76.5625 76.5625 59.5193 76.5625 38.5C76.5625 17.4807 59.5193 0.4375 38.5 0.4375ZM56.7921 29.1288C56.8176 29.5281 56.8176 29.9444 56.8176 30.3522C56.8176 42.8245 47.3189 57.1914 29.9614 57.1914C24.6089 57.1914 19.6472 55.6366 15.4671 52.9604C16.2317 53.0453 16.9624 53.0793 17.744 53.0793C22.162 53.0793 26.2231 51.584 29.4602 49.0522C25.3141 48.9672 21.8307 46.2484 20.6412 42.5102C22.094 42.7226 23.4024 42.7226 24.8978 42.3402C22.7629 41.9065 20.8441 40.7471 19.4672 39.0589C18.0903 37.3707 17.3404 35.2579 17.3447 33.0795V32.9605C18.5937 33.6657 20.0635 34.099 21.6013 34.1585C20.3085 33.2969 19.2483 32.1297 18.5147 30.7603C17.7811 29.3909 17.3968 27.8616 17.3957 26.3081C17.3957 24.5494 17.8545 22.9437 18.6786 21.5503C21.0482 24.4673 24.0051 26.8531 27.3571 28.5525C30.7091 30.2519 34.3812 31.2269 38.1347 31.4143C36.8008 24.9997 41.5926 19.8086 47.3529 19.8086C50.0717 19.8086 52.5186 20.9471 54.2433 22.7822C56.3758 22.3829 58.4148 21.5843 60.233 20.5138C59.5278 22.6973 58.0495 24.5409 56.0869 25.7049C57.99 25.501 59.8252 24.9742 61.5244 24.2351C60.2415 26.1212 58.6357 27.7949 56.7921 29.1288Z" fill="black"/>
</svg>
