<svg width="75" height="75" viewBox="0 0 75 75" fill="none" xmlns="http://www.w3.org/2000/svg">
<path d="M21.5083 0H52.6583C58.3627 0 63.8334 2.26605 67.867 6.29965C71.9006 10.3332 74.1667 15.804 74.1667 21.5083V52.6583C74.1667 58.3627 71.9006 63.8334 67.867 67.867C63.8334 71.9006 58.3627 74.1667 52.6583 74.1667H21.5083C15.804 74.1667 10.3332 71.9006 6.29965 67.867C2.26605 63.8334 0 58.3627 0 52.6583V21.5083C0 15.804 2.26605 10.3332 6.29965 6.29965C10.3332 2.26605 15.804 0 21.5083 0ZM20.7667 7.41667C17.226 7.41667 13.8304 8.82318 11.3268 11.3268C8.82318 13.8304 7.41667 17.226 7.41667 20.7667V53.4C7.41667 56.9406 8.82318 60.3363 11.3268 62.8399C13.8304 65.3435 17.226 66.75 20.7667 66.75H53.4C56.9406 66.75 60.3363 65.3435 62.8399 62.8399C65.3435 60.3363 66.75 56.9406 66.75 53.4V20.7667C66.75 17.226 65.3435 13.8304 62.8399 11.3268C60.3363 8.82318 56.9406 7.41667 53.4 7.41667H20.7667ZM56.5521 12.9792C57.7815 12.9792 58.9605 13.4675 59.8298 14.3368C60.6991 15.2062 61.1875 16.3852 61.1875 17.6146C61.1875 18.844 60.6991 20.023 59.8298 20.8923C58.9605 21.7616 57.7815 22.25 56.5521 22.25C55.3227 22.25 54.1437 21.7616 53.2743 20.8923C52.405 20.023 51.9167 18.844 51.9167 17.6146C51.9167 16.3852 52.405 15.2062 53.2743 14.3368C54.1437 13.4675 55.3227 12.9792 56.5521 12.9792ZM37.0833 18.5417C42.0009 18.5417 46.717 20.4952 50.1943 23.9724C53.6715 27.4496 55.625 32.1658 55.625 37.0833C55.625 42.0009 53.6715 46.717 50.1943 50.1943C46.717 53.6715 42.0009 55.625 37.0833 55.625C32.1658 55.625 27.4496 53.6715 23.9724 50.1943C20.4952 46.717 18.5417 42.0009 18.5417 37.0833C18.5417 32.1658 20.4952 27.4496 23.9724 23.9724C27.4496 20.4952 32.1658 18.5417 37.0833 18.5417ZM37.0833 25.9583C34.1328 25.9583 31.3031 27.1304 29.2168 29.2168C27.1304 31.3031 25.9583 34.1328 25.9583 37.0833C25.9583 40.0339 27.1304 42.8636 29.2168 44.9499C31.3031 47.0362 34.1328 48.2083 37.0833 48.2083C40.0339 48.2083 42.8636 47.0362 44.9499 44.9499C47.0362 42.8636 48.2083 40.0339 48.2083 37.0833C48.2083 34.1328 47.0362 31.3031 44.9499 29.2168C42.8636 27.1304 40.0339 25.9583 37.0833 25.9583Z" fill="black"/>
</svg>
