<svg width="62" height="61" viewBox="0 0 62 61" fill="none" xmlns="http://www.w3.org/2000/svg">
<path d="M59.0312 0.421875H2.96875C1.62051 0.421875 0.53125 1.49717 0.53125 2.82812V58.1719C0.53125 59.5028 1.62051 60.5781 2.96875 60.5781H59.0312C60.3795 60.5781 61.4688 59.5028 61.4688 58.1719V2.82812C61.4688 1.49717 60.3795 0.421875 59.0312 0.421875ZM18.6068 51.6825H9.56524V22.9729H18.6068V51.6825ZM14.0898 19.0478C13.0533 19.0478 12.0401 18.7443 11.1783 18.1759C10.3165 17.6074 9.64479 16.7994 9.24814 15.8541C8.85149 14.9088 8.74771 13.8686 8.94992 12.865C9.15213 11.8615 9.65125 10.9397 10.3842 10.2161C11.1171 9.49263 12.0509 8.9999 13.0674 8.80028C14.084 8.60067 15.1377 8.70312 16.0953 9.09468C17.0529 9.48625 17.8714 10.1493 18.4473 11.0001C19.0231 11.8509 19.3305 12.8511 19.3305 13.8743C19.3229 16.7317 16.9768 19.0478 14.0898 19.0478ZM52.4576 51.6825H43.4236V37.7188C43.4236 34.3876 43.3627 30.109 38.7238 30.109C34.024 30.109 33.3004 33.7334 33.3004 37.4781V51.6825H24.274V22.9729H32.9424V26.8981H33.0643C34.2678 24.6423 37.2156 22.2586 41.6184 22.2586C50.7742 22.2586 52.4576 28.2065 52.4576 35.9366V51.6825Z" fill="black"/>
</svg>
